<svg xmlns="http://www.w3.org/2000/svg" width="65" height="65" fill="none"><circle cx="32.5" cy="32.5" r="32.5" fill="url(#paint0_linear_167_64)"/><circle cx="32.441" cy="32.449" r="26.455" fill="url(#paint1_linear_167_64)"/><path d="M34.342 58.872L24.53 33.524l1.636-.818v-3.27l1.635-8.177 31.071 13.083-.22 2.863a23 23 0 01-19.68 21.005l-4.63.662z" fill="url(#paint2_linear_167_64)"/><path d="M41.61 32.675c0-2.474-.864-4.571-2.591-6.294-1.728-1.722-3.832-2.584-6.313-2.585V21.26c1.59 0 3.08.302 4.468.905a11.643 11.643 0 013.625 2.441 11.607 11.607 0 012.449 3.615c.604 1.385.906 2.87.905 4.455H41.61zm-5.088 0c0-1.057-.371-1.956-1.113-2.695-.742-.74-1.643-1.11-2.703-1.11v-2.537c1.76 0 3.26.618 4.5 1.856 1.24 1.237 1.86 2.732 1.86 4.486h-2.544zm6.296 11.479c-2.65 0-5.268-.576-7.854-1.728-2.587-1.151-4.94-2.785-7.06-4.9-2.12-2.114-3.757-4.46-4.912-7.04-1.155-2.577-1.732-5.188-1.733-7.832 0-.38.127-.697.381-.95.255-.255.573-.381.954-.381h5.152c.296 0 .561.1.795.302.233.2.37.438.413.712l.827 4.44c.042.338.031.623-.032.856-.064.233-.18.433-.35.602l-3.084 3.108c.424.782.927 1.538 1.51 2.267a22.344 22.344 0 001.924 2.109 22.418 22.418 0 002.067 1.824c.72.56 1.484 1.073 2.29 1.537l2.988-2.98c.19-.19.44-.333.748-.428.308-.095.61-.121.906-.08l4.388.888c.296.085.54.238.731.46.19.223.286.471.286.745v5.137c0 .38-.127.698-.381.951-.255.254-.573.38-.954.38z" fill="#fff"/><defs><linearGradient id="paint0_linear_167_64" x1="22.898" y1="2.955" x2="46.534" y2="59.091" gradientUnits="userSpaceOnUse"><stop stop-color="#26AF01"/><stop offset="1" stop-color="#104900"/></linearGradient><linearGradient id="paint1_linear_167_64" x1="14.444" y1="9.389" x2="48.389" y2="59.222" gradientUnits="userSpaceOnUse"><stop stop-color="#104900"/><stop offset="1" stop-color="#26AF01"/></linearGradient><linearGradient id="paint2_linear_167_64" x1="40.883" y1="39.248" x2="55.601" y2="56.419" gradientUnits="userSpaceOnUse"><stop stop-color="#114F01" stop-opacity=".6"/><stop offset="1" stop-color="#02A60C" stop-opacity=".21"/></linearGradient></defs></svg>